<svg viewBox="0 0 200 200" xmlns="http://www.w3.org/2000/svg">
  <path fill="#E41312" d="M33.7,-59.7C44.4,-52.1,54.3,-44.6,59.3,-34.7C64.3,-24.7,64.2,-12.4,66,1C67.7,14.4,71.2,28.8,68.4,42.5C65.7,56.2,56.6,69.2,44.1,73C31.7,76.8,15.8,71.4,0.2,71.1C-15.5,70.8,-30.9,75.5,-44.9,72.6C-58.9,69.7,-71.4,59.1,-79.4,45.7C-87.3,32.3,-90.7,16.2,-87.1,2.1C-83.6,-12,-73.1,-24.1,-65.7,-38.5C-58.3,-52.9,-54.1,-69.6,-43.6,-77.3C-33.2,-85,-16.6,-83.7,-2.6,-79.3C11.5,-74.8,22.9,-67.2,33.7,-59.7Z" transform="translate(100 100)" />
</svg>